<svg width="30" height="31" viewBox="0 0 30 31" fill="none" xmlns="http://www.w3.org/2000/svg">
<path fill-rule="evenodd" clip-rule="evenodd" d="M12.6839 0.0290731C9.08641 0.308841 5.60885 1.85633 3.22095 4.2399C1.65968 5.79829 0.643129 7.44794 0.109735 9.28862C-0.0247276 9.75261 -0.0277171 9.79394 0.057919 10.0079C0.218172 10.4084 0.793359 10.511 1.14036 10.201C1.28947 10.0677 1.35231 9.92471 1.49445 9.39501C1.69989 8.6295 2.16711 7.65069 2.72495 6.81678C3.68307 5.38464 4.91327 4.20924 6.50396 3.20605C8.81859 1.74637 12.1895 0.938715 15.102 1.14604C18.8561 1.41326 22.3617 2.92833 24.8965 5.37908C26.7429 7.16419 28.062 9.57923 28.447 11.8796C28.5398 12.4334 28.5685 12.8648 28.5685 13.7034C28.5685 14.9487 28.5826 14.9935 29.0381 15.1989C29.2597 15.2989 29.3035 15.3011 29.5206 15.2244C29.9733 15.0645 30.0052 14.9636 29.9994 13.7139C29.9939 12.5361 29.8916 11.7677 29.5924 10.6569C29.1879 9.15539 28.2555 7.38686 27.1119 5.95198C26.6599 5.38482 25.5168 4.23503 24.9338 3.76113C23.8091 2.8468 22.0309 1.79226 20.7415 1.27505C19.0957 0.61481 17.3101 0.179889 15.7025 0.0477713C15.0454 -0.00627154 13.2789 -0.0171739 12.6839 0.0290731ZM12.7425 3.56559C10.4161 3.85198 8.35015 4.80524 6.7288 6.34041C5.16385 7.82208 4.29031 9.39741 3.86026 11.5133C3.73769 12.1164 3.71589 12.3871 3.71607 13.301C3.7163 14.4998 3.80176 15.1907 4.05199 16.0174C4.18111 16.4441 4.25432 16.5851 4.44037 16.7657C4.72975 17.0465 4.88438 17.0847 5.2169 16.9578C5.43137 16.8758 5.50598 16.807 5.60821 16.5966C5.74806 16.3087 5.76266 16.4423 5.42996 14.9642C5.36343 14.6686 5.33624 14.2177 5.33266 13.3523C5.32721 12.0277 5.37979 11.6094 5.66389 10.7146C6.02085 9.59037 6.48585 8.76373 7.25264 7.89007C8.58707 6.36966 10.2501 5.41079 12.3322 4.96139C13.1619 4.78226 15.0726 4.76532 15.8491 4.9302C17.7059 5.32445 19.2879 6.17612 20.5999 7.48792C22.0637 8.95141 22.7955 10.5245 22.8646 12.3558C22.9125 13.6235 22.6974 14.6359 22.1613 15.6663C21.9231 16.1242 21.6786 16.4483 20.8798 17.3653C20.4268 17.8853 20.3463 18.1299 20.5127 18.4806C20.7526 18.9861 21.379 19.1804 21.9217 18.9178C22.5023 18.6367 23.4452 17.5134 23.9078 16.5518C24.4983 15.3241 24.7121 14.3751 24.7076 13.0006C24.7 10.6784 23.9746 8.8942 22.2674 6.99801C21.4779 6.12108 20.1127 5.09937 19.0601 4.59751C18.5267 4.34324 17.3374 3.93387 16.7576 3.80498C15.6877 3.56712 13.6951 3.4483 12.7425 3.56559Z" fill="url(#paint0_linear_2470_1421)"/>
<path d="M14.7588 12.049C14.6554 12.1181 14.5762 12.307 14.5321 12.5903C14.4089 13.3802 14.0426 14.9938 13.9033 15.3598L13.8419 15.521L13.1017 15.5265C11.9213 15.5353 11.2962 15.594 11.1836 15.7065C11.0227 15.8676 11.1186 16.0902 11.3802 16.1628C11.6713 16.2437 13.8446 16.2428 14.0772 16.1617C14.284 16.0896 14.3736 15.9048 14.5301 15.2279C14.5861 14.9861 14.6528 14.7092 14.6783 14.6125L14.7249 14.4366L14.8254 14.8002C14.8547 14.8881 14.9219 16.187 14.9951 17.426C15.1336 19.7691 15.1521 19.9441 15.2729 20.0481C15.5089 20.2513 15.7319 19.9739 15.7319 19.4769C15.7319 19.3356 15.7834 18.79 15.8464 18.2644C15.9094 17.7388 16.0024 16.921 16.0529 16.447C16.1702 15.3487 16.2489 14.9544 16.3509 14.9544C16.3776 14.9652 16.5656 15.3056 16.6791 15.5796C16.8206 15.9216 16.9296 16.1005 17.0266 16.1502C17.2037 16.241 20.9756 16.2557 21.21 16.1667C21.3884 16.0988 21.4438 15.9855 21.3945 15.7892C21.3323 15.5414 21.0725 15.5037 19.6664 15.5384C18.9693 15.5556 18.1293 15.5548 17.8 15.5367L17.201 15.5035L17.0445 15.0287C16.7712 14.1998 16.5863 13.9384 16.273 13.9384C16.089 13.9384 15.8723 14.1675 15.7964 14.442C15.7622 14.566 15.6881 15.0501 15.6319 15.5178C15.509 16.5378 15.472 16.4287 15.4144 14.8762C15.3554 13.285 15.266 12.2856 15.1695 12.136C15.0859 12.0065 14.8859 11.9641 14.7588 12.049Z" fill="url(#paint1_linear_2470_1421)"/>
<path d="M14.2079 8.33601C13.395 8.50635 12.4045 8.91278 11.6581 9.38223C10.85 9.89054 9.79459 10.8549 9.57074 11.2897C9.52608 11.3764 9.47192 11.4607 9.45035 11.4771C9.28118 11.6055 8.74386 12.7719 8.51902 13.4988C8.13825 14.7296 8.26047 16.7723 8.79615 18.1294C9.05165 18.7767 9.25428 19.1466 9.72736 19.8292C10.4794 20.9144 11.2422 21.6004 13.0356 22.8044C14.0496 23.4852 14.8999 24.0857 16.9841 25.5927C17.6514 26.0752 18.4554 26.4884 18.9924 26.6247C20.3664 26.9735 21.9291 26.7859 23.3255 26.1044C24.1696 25.6925 24.7608 25.2461 25.5352 24.4363L26.1653 23.7773C26.2681 23.6431 26.4385 23.5925 26.4646 23.5924C26.5085 23.6071 26.6875 23.6447 26.7869 23.8047C26.7851 24.8152 26.6083 26.2122 26.0117 26.9921C24.6152 28.8175 20.919 29.5227 18.3767 28.7886C17.5139 28.5396 16.4807 27.9255 15.2729 27.0507C14.6516 26.6007 14.948 26.8269 14.0027 26.6845C13.1566 26.5569 11.6245 26.1727 10.9254 25.9125C7.27685 24.5551 4.33 21.9762 2.6188 18.6433C2.2698 17.9635 1.60705 16.2949 1.60705 16.1539L1.54626 15.9107C1.36309 15.1781 0.933447 14.8814 0.431471 15.141C0.143672 15.2898 0.0602635 15.5256 0.137869 15.9712C0.253458 16.635 0.775423 18.0923 1.23133 19.024C1.63313 19.8452 2.56734 21.1814 2.91023 21.7128C3.25312 22.2443 4.27888 23.0063 4.74779 23.5338C5.21671 24.0614 8.58706 27.3047 14.0081 27.9006C15.7534 29.3609 16.6873 29.901 18.3086 30.6043C19.7957 31.0177 21.6854 31.008 23.2243 30.5789C25.5914 29.9188 27.5645 28.0439 28.1396 25.9082C28.2659 25.4393 28.2925 25.2151 28.2905 24.6356C28.2827 22.3325 27.1956 20.7542 26.0117 21.3273C25.8292 21.4157 25.5259 21.7213 24.8786 22.4693C23.5818 23.9679 22.8929 24.5032 21.7236 24.9214C21.2396 25.0945 21.0888 25.2335 20.2766 25.2336C19.7365 25.1814 19.438 25.1293 18.9475 24.8257C18.6414 24.6701 17.9582 24.2187 17.4024 23.8047C16.8543 23.3965 15.7861 22.6263 15.0285 22.0931C13.1282 20.7558 12.7382 20.4505 12.0977 19.7996C11.2023 18.8895 10.6464 17.8675 10.3802 16.6418C10.2054 15.8367 10.2094 14.4033 10.3884 13.7333C10.9811 11.5139 12.9596 9.95173 15.175 9.95401C16.2852 9.95519 17.1092 10.252 18.0178 10.978C18.2919 11.197 18.6009 11.4119 18.7047 11.4557C19.2263 11.6756 19.87 11.3824 20.0354 10.8494C20.0574 10.7784 20.046 10.6111 20.0101 10.4777C19.825 9.79048 18.3424 8.835 16.8628 8.44943C16.1519 8.26421 14.8219 8.20735 14.2079 8.33601Z" fill="url(#paint2_linear_2470_1421)"/>
<defs>
<linearGradient id="paint0_linear_2470_1421" x1="15" y1="0" x2="15" y2="30.9077" gradientUnits="userSpaceOnUse">
<stop stop-color="#10C2FC"/>
<stop offset="1" stop-color="#044CAE"/>
</linearGradient>
<linearGradient id="paint1_linear_2470_1421" x1="15" y1="0" x2="15" y2="30.9077" gradientUnits="userSpaceOnUse">
<stop stop-color="#10C2FC"/>
<stop offset="1" stop-color="#044CAE"/>
</linearGradient>
<linearGradient id="paint2_linear_2470_1421" x1="15" y1="0" x2="15" y2="30.9077" gradientUnits="userSpaceOnUse">
<stop stop-color="#10C2FC"/>
<stop offset="1" stop-color="#044CAE"/>
</linearGradient>
</defs>
</svg>
